<svg xmlns="http://www.w3.org/2000/svg" width="1024" height="1024" viewBox="0 0 1024 1024">
<g>
<path d="M 527.63 1022.97 C526.92,1023.68 604.10,1024.00 775.30,1024.00 L 0.00 1024.00 L 243.25 1023.87 C453.88,1023.77 484.82,1023.57 474.00,1022.39 C467.12,1021.65 457.34,1020.52 452.26,1019.89 C447.18,1019.27 441.89,1018.75 440.51,1018.75 C439.13,1018.75 438.00,1018.38 438.00,1017.94 C438.00,1017.49 435.86,1016.85 433.25,1016.51 C428.58,1015.91 420.34,1014.35 406.50,1011.45 C402.65,1010.64 398.49,1009.98 397.25,1009.99 C396.01,1009.99 395.00,1009.55 395.00,1009.00 C395.00,1008.45 393.21,1008.00 391.02,1008.00 C388.81,1008.00 385.60,1007.11 383.77,1006.00 C381.97,1004.91 379.37,1004.01 377.98,1004.00 C375.09,1004.00 361.95,1000.49 357.50,998.54 C355.85,997.81 351.58,996.44 348.00,995.49 C344.42,994.55 339.57,992.70 337.21,991.38 C334.86,990.07 331.77,989.00 330.35,989.00 C328.93,989.00 326.14,988.14 324.14,987.09 C322.14,986.04 318.59,984.47 316.25,983.60 C308.62,980.76 300.00,976.68 300.00,975.91 C300.00,975.50 298.61,974.85 296.92,974.48 C293.48,973.73 283.37,968.63 280.92,966.42 C280.05,965.64 278.40,965.00 277.24,965.00 C276.09,965.00 274.53,964.39 273.78,963.64 C273.04,962.89 270.42,961.32 267.96,960.15 C265.51,958.97 262.15,957.12 260.50,956.03 C258.85,954.94 255.39,952.92 252.82,951.55 C250.25,950.17 247.86,948.58 247.51,948.02 C247.17,947.46 246.22,947.00 245.40,947.00 C243.80,947.00 239.59,944.25 233.92,939.50 C230.82,936.90 222.08,931.07 215.72,927.35 C214.64,926.71 212.57,925.24 211.12,924.08 C208.31,921.82 197.62,913.79 193.04,910.50 C186.86,906.06 174.36,895.02 172.22,892.10 C170.97,890.40 169.34,889.00 168.61,889.00 C167.87,889.00 164.09,885.74 160.20,881.75 C156.32,877.76 150.41,871.80 147.08,868.51 C143.75,865.22 141.13,861.87 141.26,861.08 C141.40,860.26 140.43,859.37 139.04,859.03 C137.68,858.70 134.15,855.52 131.18,851.96 C128.21,848.41 123.47,842.86 120.64,839.64 C117.81,836.42 115.32,833.27 115.10,832.64 C114.88,832.01 113.75,830.56 112.60,829.42 C110.22,827.05 107.73,823.86 102.28,816.16 C95.13,806.07 89.56,798.50 88.91,798.00 C87.45,796.87 82.00,787.16 82.00,785.67 C82.00,784.79 81.10,783.59 80.00,783.00 C78.90,782.41 76.82,779.58 75.38,776.71 C73.95,773.85 72.15,770.79 71.39,769.92 C69.62,767.91 65.01,758.85 65.00,757.39 C65.00,756.78 63.65,754.58 62.00,752.50 C60.35,750.43 58.56,747.06 58.01,745.02 C57.46,742.98 56.17,740.35 55.14,739.16 C54.12,737.98 52.51,734.87 51.57,732.26 C49.65,726.91 49.28,726.10 44.52,717.00 C42.66,713.42 41.10,709.67 41.07,708.65 C41.03,707.64 40.10,705.54 38.99,703.99 C37.89,702.44 36.70,699.67 36.35,697.83 C36.00,696.00 35.10,693.28 34.36,691.80 C33.61,690.31 33.00,687.93 33.00,686.49 C33.00,685.01 32.57,684.15 32.00,684.50 C31.45,684.84 31.00,684.42 31.00,683.56 C31.00,682.70 30.52,682.00 29.94,682.00 C29.36,682.00 29.13,681.60 29.43,681.11 C29.73,680.63 28.86,677.14 27.49,673.37 C26.12,669.60 25.00,665.77 25.00,664.87 C25.00,663.97 24.33,661.94 23.51,660.36 C22.68,658.79 22.01,656.35 22.01,654.95 C22.00,653.55 21.52,651.92 20.94,651.34 C20.36,650.76 19.63,647.63 19.32,644.39 C19.02,641.15 18.22,638.05 17.54,637.50 C16.87,636.95 16.04,634.70 15.69,632.50 C15.34,630.30 14.14,624.45 13.02,619.50 C11.90,614.55 10.52,607.84 9.95,604.60 C9.37,601.35 8.48,597.90 7.96,596.93 C6.48,594.16 2.91,560.90 2.50,546.00 C2.11,531.84 1.69,527.35 0.63,526.30 L 0.63 526.30 C0.28,526.30 0.00,638.00 0.00,774.83 L 0.00 249.70 C0.00,421.42 0.32,499.08 1.03,498.37 C1.60,497.80 2.26,491.07 2.51,483.42 C2.96,469.14 4.48,453.82 5.98,448.50 C6.44,446.85 7.11,440.77 7.46,435.00 C8.12,423.99 12.27,400.63 14.47,395.50 C15.18,393.85 16.73,388.35 17.92,383.27 C19.12,378.19 21.00,371.44 22.12,368.27 C23.23,365.10 24.38,361.38 24.67,360.00 C25.62,355.46 31.31,340.53 32.72,338.86 C33.49,337.96 34.31,335.28 34.54,332.90 C34.78,330.53 36.29,325.87 37.90,322.54 C39.52,319.22 41.15,315.38 41.53,314.00 C41.91,312.62 44.43,306.88 47.11,301.24 C49.80,295.60 52.00,290.61 52.00,290.15 C52.00,289.69 52.90,288.50 54.00,287.50 C55.10,286.50 56.00,284.82 56.00,283.76 C56.00,281.79 64.17,265.71 66.56,262.98 C67.29,262.15 68.71,259.67 69.72,257.48 C70.73,255.29 72.78,251.60 74.27,249.27 C75.77,246.94 77.00,244.62 77.00,244.10 C77.00,243.59 77.34,243.02 77.75,242.83 C78.44,242.53 85.85,231.83 87.00,229.48 C87.52,228.42 93.80,219.27 95.22,217.50 C98.95,212.85 102.00,208.61 102.00,208.06 C102.00,207.69 103.70,205.62 105.77,203.45 C107.84,201.28 111.26,196.93 113.36,193.79 C115.47,190.64 118.00,187.82 119.00,187.50 C119.99,187.19 121.06,185.91 121.37,184.66 C121.69,183.41 124.64,179.50 127.95,175.97 C131.25,172.45 134.15,169.04 134.40,168.40 C134.65,167.76 136.23,166.62 137.92,165.87 C139.62,165.12 141.00,163.92 141.00,163.20 C141.00,161.45 161.50,141.00 163.26,141.00 C164.01,141.00 165.38,139.43 166.30,137.50 C167.22,135.57 168.32,134.00 168.76,134.00 C169.19,134.00 172.23,131.47 175.51,128.37 C178.78,125.27 182.71,122.30 184.23,121.77 C185.75,121.24 187.00,120.23 187.00,119.54 C187.00,118.02 195.76,111.00 197.66,111.00 C198.40,111.00 199.00,110.52 199.00,109.94 C199.00,109.36 199.45,109.16 200.00,109.50 C200.55,109.84 201.00,109.45 201.00,108.63 C201.00,107.81 202.46,106.12 204.25,104.88 C206.04,103.65 211.55,99.62 216.50,95.94 C221.45,92.25 226.88,88.40 228.56,87.37 C233.71,84.22 241.43,79.13 242.71,78.04 C243.37,77.47 244.21,77.00 244.56,77.00 C244.92,77.00 247.21,75.65 249.66,74.00 C252.10,72.35 254.70,71.00 255.43,71.00 C256.16,71.00 257.32,70.32 258.00,69.50 C258.68,68.68 259.72,68.00 260.29,68.00 C260.87,68.00 262.05,67.38 262.92,66.62 C265.07,64.75 279.65,57.00 281.03,57.00 C281.64,57.00 283.61,55.88 285.41,54.50 C287.21,53.12 289.28,52.00 290.00,52.00 C290.72,52.00 295.85,49.78 301.41,47.06 C306.96,44.34 312.77,41.89 314.32,41.61 C315.87,41.33 319.15,39.93 321.60,38.50 C324.05,37.06 329.04,35.26 332.68,34.50 C336.33,33.73 339.58,32.69 339.91,32.18 C340.23,31.67 345.00,29.80 350.50,28.01 C356.00,26.23 361.85,24.20 363.50,23.50 C365.15,22.80 369.42,21.46 373.00,20.52 C376.58,19.57 381.61,18.17 384.19,17.40 C386.77,16.63 389.73,16.00 390.78,16.00 C391.83,16.00 394.00,15.36 395.60,14.57 C400.10,12.35 429.57,6.84 438.50,6.55 C442.90,6.40 451.45,5.55 457.50,4.65 C463.55,3.76 474.72,2.85 482.32,2.64 C490.80,2.41 496.57,1.83 497.27,1.13 C498.11,0.29 435.08,0.00 249.20,0.00 L 1024.00 0.00 L 774.75 0.03 C600.71,0.05 526.04,0.38 527.30,1.11 C528.29,1.68 535.71,2.31 543.80,2.49 C551.88,2.68 565.03,3.59 573.00,4.53 C591.31,6.68 590.23,6.52 592.00,7.30 C592.83,7.66 597.33,8.65 602.00,9.49 C606.67,10.33 614.55,11.92 619.50,13.03 C624.45,14.14 630.30,15.34 632.50,15.68 C634.70,16.03 637.09,17.15 637.82,18.17 C638.72,19.45 639.61,19.76 640.67,19.17 C642.35,18.23 648.92,19.58 658.50,22.84 C668.47,26.24 677.95,29.00 679.61,29.00 C680.48,29.00 682.33,29.90 683.73,31.00 C685.13,32.10 687.02,33.00 687.93,33.00 C688.85,33.00 690.10,33.50 690.71,34.11 C691.32,34.72 693.88,35.61 696.40,36.08 C698.91,36.55 702.17,37.72 703.63,38.68 C705.09,39.64 707.05,40.54 707.98,40.68 C710.22,41.02 723.05,46.79 724.80,48.25 C725.56,48.88 728.45,50.19 731.23,51.17 C734.02,52.15 737.01,53.59 737.90,54.37 C738.78,55.16 742.42,57.20 746.00,58.91 C749.58,60.62 753.62,62.65 755.00,63.42 C756.38,64.19 760.06,66.02 763.20,67.50 C766.33,68.98 769.03,70.50 769.20,70.89 C769.36,71.28 771.53,72.75 774.00,74.16 C788.46,82.37 807.11,94.91 813.50,100.72 C814.60,101.72 816.71,103.15 818.20,103.91 C819.68,104.66 823.26,107.47 826.15,110.14 C829.04,112.81 831.80,115.00 832.27,115.00 C832.98,115.00 841.44,122.03 856.14,134.84 C857.62,136.12 859.10,138.28 859.44,139.63 C859.78,140.98 860.52,141.80 861.09,141.44 C861.96,140.91 869.41,147.23 873.35,151.85 C873.98,152.59 877.76,156.37 881.75,160.24 C885.74,164.11 889.00,167.87 889.00,168.61 C889.00,169.34 890.37,170.96 892.05,172.20 C893.73,173.44 897.90,177.83 901.30,181.96 C904.71,186.09 908.09,190.15 908.81,190.99 C912.40,195.14 920.36,205.80 921.52,208.00 C922.24,209.38 923.77,211.16 924.92,211.97 C926.06,212.78 927.00,213.85 927.00,214.36 C927.00,215.62 937.69,231.75 940.62,234.91 C941.93,236.32 943.00,238.26 943.00,239.20 C943.00,240.15 943.90,241.41 945.00,242.00 C946.10,242.59 947.00,243.71 947.00,244.49 C947.00,245.26 948.35,247.90 950.00,250.34 C951.65,252.79 953.00,255.25 953.00,255.81 C953.00,256.37 953.38,256.98 953.84,257.17 C954.80,257.54 956.91,261.24 960.18,268.24 C961.40,270.85 963.14,273.23 964.05,273.52 C965.21,273.88 965.57,274.80 965.23,276.56 C964.96,278.00 965.40,279.80 966.27,280.79 C968.04,282.79 975.00,296.73 975.00,298.27 C975.00,298.85 976.22,301.39 977.72,303.91 C981.96,311.06 987.52,324.56 990.12,334.00 C990.80,336.48 991.89,339.17 992.54,340.00 C993.19,340.83 994.53,344.65 995.53,348.50 C996.52,352.35 997.68,355.96 998.11,356.53 C999.31,358.13 1004.00,374.93 1004.00,377.65 C1004.00,378.99 1004.90,381.84 1006.00,384.00 C1007.10,386.16 1008.00,389.30 1008.00,390.99 C1008.00,392.80 1008.62,394.30 1009.50,394.64 C1010.33,394.95 1011.00,396.31 1011.00,397.65 C1011.00,398.99 1011.63,402.88 1012.41,406.29 C1015.10,418.15 1016.83,427.55 1017.97,436.50 C1018.60,441.45 1019.47,447.62 1019.91,450.22 C1020.39,453.09 1020.32,455.06 1019.73,455.26 C1019.12,455.46 1019.16,457.57 1019.83,461.04 C1020.71,465.56 1021.86,483.96 1021.97,495.25 C1021.99,496.76 1022.45,498.00 1023.00,498.00 C1023.66,498.00 1024.00,414.33 1024.00,249.00 L 1024.00 774.30 C1024.00,618.68 1023.65,525.55 1023.06,525.55 C1023.06,525.55 1023.06,525.55 1023.06,525.55 C1022.54,526.07 1021.63,534.83 1021.03,545.00 C1020.43,555.17 1019.43,567.78 1018.80,573.00 C1018.18,578.22 1017.63,584.41 1017.58,586.75 C1017.54,589.09 1017.16,591.00 1016.75,591.00 C1016.34,591.00 1016.00,592.46 1015.99,594.25 C1015.99,596.04 1015.32,598.79 1014.50,600.36 C1013.59,602.09 1012.91,606.61 1012.75,611.86 C1012.60,617.00 1012.02,620.90 1011.31,621.50 C1010.66,622.05 1009.60,625.42 1008.95,629.00 C1008.31,632.58 1007.38,636.17 1006.89,637.00 C1004.96,640.24 1004.18,642.79 1003.69,647.55 C1003.19,652.44 1000.77,660.30 999.12,662.41 C998.66,663.01 998.00,665.59 997.67,668.15 C997.34,670.70 996.43,674.30 995.65,676.15 C994.87,677.99 993.43,681.97 992.45,685.00 C991.47,688.03 990.06,691.44 989.33,692.58 C988.59,693.72 988.23,694.90 988.52,695.18 C988.80,695.47 987.41,699.26 985.42,703.60 C983.43,707.95 981.41,712.40 980.94,713.50 C976.30,724.29 969.02,738.77 967.68,739.87 C966.75,740.63 966.00,742.01 966.00,742.93 C966.00,745.01 962.39,752.64 961.01,753.50 C960.45,753.84 960.00,754.88 960.00,755.81 C960.00,756.74 958.20,760.20 956.00,763.50 C953.80,766.80 952.00,770.13 952.00,770.91 C952.00,771.68 950.88,773.79 949.50,775.59 C948.12,777.39 947.00,779.17 947.00,779.55 C947.00,780.19 940.22,789.91 939.01,791.00 C938.71,791.28 937.96,792.65 937.34,794.05 C936.10,796.88 930.10,805.40 925.47,810.90 C923.80,812.88 921.12,816.53 919.50,819.00 C917.89,821.47 914.98,825.34 913.03,827.59 C911.09,829.84 908.28,833.22 906.79,835.09 C893.96,851.19 885.85,860.00 883.88,860.00 C882.79,860.00 882.00,860.70 882.00,861.66 C882.00,863.76 863.68,882.00 861.57,882.00 C860.70,882.00 860.00,882.84 860.00,883.88 C860.00,886.03 848.53,896.48 846.10,896.55 C845.22,896.57 844.62,897.16 844.77,897.85 C845.09,899.35 843.88,900.56 838.25,904.39 C835.91,905.97 834.00,907.63 834.00,908.07 C834.00,908.51 833.21,909.12 832.25,909.43 C831.29,909.75 828.92,911.48 827.00,913.28 C825.08,915.08 821.03,918.24 818.00,920.31 C814.97,922.38 808.47,927.20 803.53,931.03 C798.60,934.87 793.80,938.00 792.87,938.00 C791.93,938.00 791.02,938.34 790.83,938.75 C790.08,940.44 781.52,946.35 774.74,949.86 C770.76,951.91 765.25,955.03 762.50,956.78 C759.75,958.53 756.77,959.97 755.87,959.98 C754.98,959.99 753.66,960.70 752.95,961.56 C751.45,963.37 745.55,966.00 743.00,966.00 C742.03,966.00 740.63,966.74 739.87,967.65 C738.34,969.50 710.47,983.00 708.18,983.00 C707.67,983.00 705.28,984.08 702.88,985.40 C700.47,986.72 696.92,988.13 695.00,988.53 C693.08,988.93 691.28,989.54 691.00,989.89 C690.72,990.24 687.58,991.52 684.00,992.72 C680.42,993.93 675.70,995.59 673.50,996.42 C671.30,997.24 668.04,997.93 666.25,997.96 C664.46,997.98 663.00,998.41 663.00,998.91 C663.00,1000.01 650.63,1004.00 647.20,1004.00 C644.05,1004.00 637.00,1006.09 637.00,1007.03 C637.00,1007.96 629.25,1009.42 625.84,1009.13 C624.24,1008.99 622.65,1009.61 621.84,1010.70 C620.76,1012.15 618.80,1012.56 611.79,1012.79 C606.65,1012.96 601.94,1013.67 600.29,1014.53 C598.76,1015.33 596.04,1015.99 594.25,1015.99 C592.46,1016.00 591.00,1016.39 591.00,1016.87 C591.00,1018.34 574.54,1020.05 551.08,1021.01 C538.28,1021.54 528.22,1022.38 527.63,1022.97 ZM 500.00 691.92 C503.46,693.12 548.04,693.22 551.60,692.04 C554.78,690.98 595.36,686.27 606.50,685.66 C608.15,685.57 609.99,685.18 610.59,684.79 C612.31,683.67 629.62,680.00 633.17,680.00 C636.82,680.00 643.00,677.99 643.00,676.80 C643.00,676.36 643.87,676.00 644.94,676.00 C646.01,676.00 647.14,675.59 647.45,675.09 C647.76,674.58 649.92,673.86 652.26,673.47 C657.92,672.52 673.37,666.85 679.09,663.61 C684.87,660.33 702.00,642.12 702.00,639.25 C702.00,638.76 703.34,636.59 704.97,634.43 C706.61,632.27 707.96,630.02 707.97,629.44 C707.99,628.85 708.92,627.39 710.04,626.19 C711.16,624.98 711.83,624.00 711.52,624.00 C711.22,624.00 712.19,622.09 713.67,619.75 C722.60,605.67 722.86,605.37 727.18,603.58 C729.56,602.60 732.40,601.30 733.50,600.70 C740.03,597.11 742.67,596.00 744.68,596.00 C745.92,596.00 747.41,595.11 747.99,594.01 C749.31,591.56 759.77,584.74 761.03,585.52 C761.53,585.83 762.75,585.13 763.72,583.96 C765.30,582.07 769.97,578.71 783.38,569.82 C785.60,568.35 787.72,567.33 788.08,567.55 C788.76,567.97 789.19,567.59 799.50,557.10 C802.80,553.75 806.07,551.00 806.77,551.00 C807.48,551.00 808.45,549.99 808.94,548.75 C809.43,547.51 812.80,543.48 816.42,539.78 C820.04,536.09 823.00,532.34 823.00,531.44 C823.00,529.87 825.05,526.80 829.75,521.33 C830.99,519.89 832.01,517.99 832.01,517.10 C832.02,516.22 833.14,513.54 834.51,511.15 C835.88,508.75 837.00,505.81 837.00,504.60 C837.00,503.39 837.47,501.93 838.05,501.35 C838.63,500.77 840.43,494.82 842.05,488.12 C845.92,472.16 846.20,454.55 842.81,440.55 C841.60,435.57 840.32,431.27 839.96,431.00 C838.51,429.90 837.04,426.06 837.56,424.71 C837.86,423.92 837.05,421.98 835.75,420.39 C834.46,418.80 831.86,415.02 829.99,412.00 C823.91,402.22 812.34,390.68 796.13,378.26 C794.53,377.03 790.13,374.39 786.36,372.40 C782.59,370.41 779.14,368.15 778.70,367.39 C778.26,366.62 777.00,366.00 775.90,366.00 C774.80,366.00 772.24,364.88 770.22,363.51 C768.21,362.13 764.29,360.26 761.53,359.35 C758.76,358.43 755.15,356.94 753.50,356.03 C751.85,355.12 747.12,353.34 743.00,352.08 C738.88,350.81 735.07,349.37 734.55,348.89 C734.03,348.40 732.43,348.00 731.00,348.00 C729.57,348.00 727.97,347.61 727.45,347.13 C726.93,346.65 723.12,345.46 719.00,344.49 C714.88,343.52 710.60,342.25 709.50,341.67 C708.40,341.09 705.47,340.30 703.00,339.91 C700.53,339.52 693.10,338.23 686.50,337.04 C679.90,335.85 673.06,335.10 671.31,335.37 C669.36,335.67 667.97,335.40 667.73,334.68 C667.46,333.88 664.14,333.50 657.42,333.50 C650.56,333.50 647.07,333.09 646.11,332.18 C645.01,331.14 639.93,330.93 622.69,331.18 C609.18,331.38 600.54,331.89 600.33,332.50 C600.13,333.11 595.77,333.38 589.13,333.19 C580.32,332.94 577.97,333.18 576.70,334.44 C575.67,335.48 573.29,336.00 569.64,336.00 C566.61,336.00 563.01,336.43 561.63,336.95 C560.04,337.55 559.02,337.55 558.81,336.94 C558.50,336.00 544.87,337.77 534.98,340.03 C532.49,340.60 529.12,341.00 527.48,340.91 C525.84,340.82 522.53,341.48 520.12,342.38 C517.72,343.27 514.71,344.00 513.43,344.00 C512.16,344.00 510.84,344.45 510.50,345.00 C510.16,345.55 507.66,346.00 504.94,346.00 C502.22,346.00 500.00,346.40 500.00,346.88 C500.00,347.37 498.99,348.01 497.75,348.31 C496.51,348.61 491.67,349.75 487.00,350.83 C482.33,351.92 476.02,353.75 473.00,354.90 C469.98,356.06 466.69,357.00 465.71,357.00 C464.73,357.00 462.20,357.88 460.11,358.95 C458.01,360.01 455.37,360.65 454.23,360.35 C453.04,360.04 450.98,360.64 449.34,361.80 C447.78,362.89 444.02,364.58 441.00,365.54 C433.50,367.95 425.00,371.95 425.00,373.07 C425.00,373.58 424.21,374.00 423.25,374.00 C421.22,374.01 407.22,379.57 405.37,381.11 C404.68,381.68 401.45,382.77 398.21,383.53 C394.96,384.29 389.66,386.28 386.43,387.95 C383.20,389.63 379.87,391.00 379.03,391.00 C378.19,391.01 375.48,392.35 373.00,394.00 C370.52,395.65 367.71,396.99 366.74,397.00 C364.70,397.00 361.66,398.58 357.78,401.67 C356.28,402.86 353.57,404.15 351.77,404.53 C349.97,404.91 346.44,406.70 343.91,408.50 C341.39,410.29 337.34,412.72 334.91,413.90 C332.49,415.07 328.74,417.11 326.59,418.43 C324.45,419.74 322.11,420.60 321.41,420.33 C320.70,420.05 319.54,420.77 318.82,421.92 C317.50,424.02 313.00,424.85 313.00,422.99 C313.00,421.30 302.81,415.40 297.74,414.14 C288.00,411.74 264.99,410.39 247.50,411.21 C242.55,411.44 235.59,411.29 232.03,410.88 C228.47,410.47 221.72,410.54 217.03,411.04 C183.96,414.52 186.11,414.00 180.47,419.90 C178.49,421.96 178.24,423.06 178.64,427.90 C179.15,434.08 180.49,439.84 182.53,444.65 C183.27,446.38 184.18,449.42 184.55,451.41 C184.92,453.40 185.63,455.27 186.11,455.57 C186.60,455.87 187.00,457.13 187.00,458.38 C187.00,459.62 188.34,463.26 189.98,466.47 C191.62,469.67 193.26,473.92 193.63,475.90 C193.99,477.88 195.35,480.77 196.64,482.33 C197.94,483.88 199.00,485.95 199.00,486.92 C199.00,487.89 199.90,489.50 201.00,490.50 C202.10,491.50 203.00,493.11 203.00,494.10 C203.00,495.08 203.40,496.13 203.90,496.44 C204.80,496.99 207.44,501.68 211.53,509.96 C213.25,513.46 213.54,515.10 212.85,517.59 C211.63,521.99 212.49,545.51 214.06,551.00 C214.77,553.47 216.03,556.31 216.87,557.30 C217.71,558.29 218.31,560.54 218.19,562.30 C218.04,564.54 218.73,566.32 220.49,568.21 C221.87,569.69 223.00,571.24 223.00,571.63 C223.00,572.03 224.37,573.51 226.05,574.93 C228.90,577.33 229.03,577.71 227.94,580.78 C227.30,582.59 227.00,585.51 227.27,587.28 C227.54,589.05 227.41,591.17 226.98,592.00 C226.14,593.62 225.25,600.84 224.35,613.50 C224.03,617.90 223.26,621.82 222.64,622.21 C221.18,623.13 221.11,662.99 222.56,667.98 C223.60,671.55 225.34,672.81 232.13,674.92 C234.66,675.70 236.57,675.73 238.44,675.02 C239.92,674.46 242.65,674.00 244.50,674.00 C247.92,674.00 277.73,666.72 280.82,665.13 C281.74,664.65 284.19,663.96 286.26,663.58 C288.33,663.21 292.23,661.80 294.92,660.45 C297.61,659.09 301.32,657.71 303.16,657.36 C305.00,657.02 313.02,653.57 321.00,649.68 C328.98,645.80 335.95,642.60 336.50,642.56 C337.46,642.50 338.44,641.76 345.54,635.74 C347.33,634.22 349.08,631.81 349.44,630.38 C350.00,628.17 350.49,627.87 352.80,628.38 C354.28,628.71 360.23,629.43 366.00,629.97 C377.97,631.10 393.49,633.57 395.19,634.62 C395.82,635.01 399.52,635.72 403.42,636.20 C407.31,636.68 412.52,637.33 415.00,637.64 C417.48,637.96 420.09,638.69 420.81,639.28 C421.52,639.86 424.45,640.25 427.31,640.14 L 432.50 639.95 L 445.23 652.22 C458.83,665.35 463.38,669.48 474.69,678.96 C478.64,682.27 482.13,685.40 482.45,685.91 C482.76,686.42 486.28,687.79 490.26,688.95 C494.24,690.11 498.62,691.45 500.00,691.92 ZM 281.45 506.08 C280.35,507.86 278.12,507.00 278.28,504.87 C278.38,503.58 280.44,501.24 283.47,498.97 C286.24,496.89 292.07,492.45 296.44,489.10 C300.81,485.74 304.93,483.00 305.59,483.00 C306.25,483.00 307.04,482.34 307.35,481.53 C307.84,480.26 319.16,472.24 328.40,466.62 C330.11,465.58 333.37,463.45 335.66,461.87 C337.95,460.29 340.53,459.00 341.38,459.00 C342.23,459.00 344.31,457.65 346.00,456.00 C347.69,454.35 349.90,453.00 350.91,453.00 C351.93,453.00 353.33,452.31 354.03,451.46 C354.73,450.62 358.27,448.27 361.90,446.24 C365.53,444.21 370.95,441.08 373.94,439.28 C376.93,437.47 380.26,436.00 381.32,436.00 C382.39,436.00 387.14,433.83 391.88,431.17 C405.37,423.61 415.40,419.11 445.80,406.92 C447.06,406.41 449.00,406.00 450.10,406.00 C451.21,406.00 454.00,404.95 456.31,403.66 C458.62,402.37 462.30,400.98 464.50,400.57 C466.70,400.16 468.95,399.48 469.50,399.06 C470.53,398.27 477.13,396.07 485.00,393.89 C487.48,393.21 490.85,391.97 492.50,391.16 C494.15,390.34 497.96,389.48 500.97,389.25 C503.98,389.02 507.30,388.37 508.36,387.81 C512.08,385.81 516.94,384.56 529.00,382.47 C530.92,382.14 533.40,381.48 534.50,381.00 C536.63,380.08 540.15,379.38 549.00,378.11 C552.03,377.67 555.62,376.85 557.00,376.29 C558.38,375.72 563.33,374.73 568.00,374.09 C576.16,372.96 581.11,372.59 602.00,371.54 C607.22,371.27 614.55,370.55 618.29,369.93 C622.63,369.21 631.62,369.02 643.29,369.41 C668.20,370.23 672.82,370.57 677.81,371.93 C682.82,373.30 685.12,373.70 698.00,375.47 C708.87,376.97 720.69,379.55 722.36,380.79 C722.99,381.26 725.53,382.25 728.00,383.00 C730.47,383.75 734.53,385.22 737.00,386.28 C742.00,388.41 742.47,388.60 752.75,392.54 C756.74,394.07 760.00,395.63 760.00,396.00 C760.00,396.38 761.78,397.22 763.96,397.87 C766.13,398.52 768.19,399.50 768.53,400.04 C768.86,400.59 770.67,401.67 772.55,402.46 C774.42,403.24 778.11,405.90 780.75,408.36 C783.39,410.83 786.79,413.16 788.32,413.54 C789.90,413.94 794.80,417.97 799.66,422.87 C808.94,432.23 811.47,435.43 810.63,436.78 C809.90,437.97 802.77,436.79 788.50,433.10 C781.90,431.40 775.15,430.04 773.50,430.09 C771.85,430.15 766.67,429.47 762.00,428.60 C757.33,427.72 751.87,427.00 749.87,427.00 C747.87,427.00 745.69,426.33 745.00,425.50 C744.22,424.56 742.02,424.00 739.10,424.00 C736.53,424.00 733.46,423.31 732.25,422.46 C730.27,421.07 729.75,421.08 727.03,422.49 C725.36,423.35 724.00,423.65 724.00,423.15 C724.00,422.66 721.64,421.89 718.75,421.45 C711.56,420.34 608.81,420.28 607.23,421.39 C606.54,421.87 601.70,422.05 596.49,421.78 C589.65,421.42 586.73,421.62 585.98,422.52 C585.40,423.23 581.22,424.02 576.23,424.38 C571.43,424.72 564.12,425.45 560.00,426.01 C555.88,426.57 549.58,427.42 546.00,427.90 C542.42,428.39 535.45,429.54 530.50,430.47 C525.55,431.39 518.80,432.54 515.50,433.02 C512.20,433.50 507.36,434.37 504.75,434.95 C497.49,436.56 492.08,437.69 485.50,438.98 C479.80,440.09 472.18,442.03 465.43,444.07 C463.74,444.58 461.39,445.00 460.20,445.00 C459.01,445.00 454.58,446.16 450.34,447.58 C446.11,449.01 439.93,450.61 436.61,451.14 C433.29,451.68 430.09,452.51 429.51,452.99 C428.93,453.47 424.86,454.83 420.48,456.00 C416.09,457.17 412.07,458.55 411.55,459.06 C411.03,459.58 409.31,460.00 407.73,460.00 C406.16,460.00 404.03,460.45 403.02,460.99 C402.00,461.54 398.76,462.64 395.83,463.45 C391.57,464.62 371.20,471.55 364.00,474.27 C363.17,474.58 358.23,476.24 353.00,477.97 C347.77,479.69 342.60,481.48 341.50,481.96 C337.30,483.77 320.31,489.92 316.25,491.09 C313.91,491.76 312.00,492.69 312.00,493.15 C312.00,493.60 310.19,494.27 307.98,494.62 C305.77,494.97 303.71,495.65 303.42,496.13 C303.12,496.61 301.84,497.00 300.56,497.00 C299.29,497.00 297.71,497.65 297.05,498.44 C296.39,499.23 292.74,501.07 288.93,502.53 C285.13,503.98 281.76,505.58 281.45,506.08 ZM 560.17 612.04 C559.78,613.14 504.52,613.07 488.00,611.95 C482.23,611.56 472.25,611.19 465.83,611.12 C457.81,611.04 454.04,610.63 453.77,609.81 C453.53,609.08 449.42,608.30 442.94,607.77 C427.73,606.51 408.36,604.05 398.00,602.05 C394.98,601.47 389.80,600.57 386.50,600.07 C383.20,599.56 378.48,598.63 376.00,598.01 C373.52,597.39 370.15,596.62 368.50,596.31 C366.85,596.00 364.97,595.33 364.32,594.81 C363.59,594.23 361.86,594.22 359.80,594.79 C357.31,595.48 356.13,595.37 355.19,594.36 C354.49,593.61 353.00,593.00 351.86,593.00 C348.59,593.00 339.00,589.95 339.00,588.91 C339.00,588.39 336.86,588.01 334.25,588.07 C330.02,588.16 320.08,585.41 318.33,583.66 C317.97,583.30 316.17,583.00 314.33,583.00 C312.50,583.00 311.00,582.66 311.00,582.24 C311.00,581.51 302.68,579.02 298.50,578.51 C297.40,578.37 295.23,577.75 293.68,577.13 C292.14,576.51 290.56,575.99 290.18,575.98 C289.81,575.97 288.38,575.08 287.00,574.00 C285.62,572.92 283.54,572.03 282.37,572.02 C279.76,571.99 277.37,569.50 279.00,568.50 C280.17,567.77 293.20,568.47 309.50,570.14 C331.39,572.37 348.59,573.06 397.00,573.63 C448.68,574.25 479.15,573.42 514.50,570.46 C524.40,569.63 537.67,568.53 544.00,568.01 C550.33,567.50 558.65,566.58 562.50,565.98 C566.35,565.38 571.70,564.72 574.39,564.51 C577.07,564.30 579.75,563.65 580.34,563.06 C580.92,562.48 582.88,562.00 584.69,562.00 C586.49,562.00 589.89,561.57 592.24,561.05 C594.58,560.53 599.65,559.57 603.50,558.92 C607.35,558.27 614.87,556.68 620.21,555.37 C625.54,554.07 631.42,553.00 633.27,553.00 C635.11,553.00 638.49,552.10 640.76,551.00 C643.04,549.90 646.25,549.00 647.89,549.00 C649.54,549.00 651.16,548.55 651.50,548.00 C651.84,547.45 653.41,547.00 655.00,547.00 C656.59,547.00 658.16,546.55 658.50,546.00 C658.84,545.45 660.51,545.00 662.21,545.00 C663.90,545.00 667.82,544.16 670.90,543.12 C684.00,538.73 686.64,537.99 689.13,538.00 C690.57,538.00 692.32,537.33 693.00,536.50 C693.68,535.67 695.78,535.00 697.66,535.00 C699.54,535.00 702.30,534.13 703.79,533.06 C705.28,531.99 708.97,530.35 712.00,529.41 C715.03,528.46 717.95,527.37 718.50,526.98 C719.05,526.58 721.17,525.96 723.22,525.59 C725.26,525.22 728.86,523.82 731.22,522.47 C733.57,521.13 736.10,520.02 736.83,520.01 C737.56,520.01 742.32,518.03 747.39,515.63 C752.47,513.22 757.73,510.92 759.06,510.51 C760.40,510.11 762.86,508.95 764.53,507.94 C766.20,506.93 769.80,505.61 772.53,504.99 C775.26,504.38 778.40,503.06 779.50,502.05 C782.44,499.37 789.56,496.00 792.30,496.00 C793.87,496.00 795.07,495.15 795.82,493.50 C796.44,492.12 797.61,491.00 798.41,491.00 C799.21,491.00 801.14,490.48 802.68,489.83 C804.23,489.19 805.85,488.63 806.29,488.58 C806.72,488.54 807.51,487.83 808.04,487.00 C808.87,485.70 809.12,485.69 809.93,486.94 C810.90,488.45 809.73,490.55 803.46,498.50 C801.72,500.70 799.25,504.41 797.97,506.74 C796.69,509.07 794.85,511.23 793.87,511.54 C792.90,511.85 791.85,512.88 791.55,513.83 C791.25,514.79 789.65,516.37 788.00,517.34 C786.35,518.32 785.00,519.68 785.00,520.37 C785.00,522.05 779.54,527.21 778.68,526.35 C778.31,525.97 778.00,526.22 778.00,526.90 C778.00,529.10 758.15,547.00 755.70,547.00 C755.37,547.00 754.00,548.01 752.67,549.25 C747.63,553.94 728.32,566.00 725.84,566.00 C724.89,566.00 722.89,567.12 721.41,568.50 C719.92,569.88 718.21,571.06 717.60,571.13 C717.00,571.20 715.47,571.36 714.21,571.49 C712.95,571.62 710.92,572.63 709.71,573.72 C708.49,574.81 704.80,576.96 701.50,578.49 C698.20,580.02 694.66,581.70 693.64,582.22 C692.61,582.73 690.94,583.32 689.92,583.51 C688.91,583.71 686.60,584.54 684.79,585.35 C682.98,586.16 679.70,587.36 677.50,588.00 C671.73,589.69 667.00,591.95 667.00,593.02 C667.00,593.52 666.31,593.67 665.47,593.35 C664.62,593.02 662.03,593.26 659.72,593.87 C657.40,594.49 654.31,595.12 652.86,595.28 C651.41,595.44 649.61,596.06 648.86,596.65 C646.93,598.18 637.71,600.65 629.50,601.85 C625.65,602.41 620.25,603.38 617.50,604.00 C608.91,605.94 588.80,608.66 573.00,610.01 C566.12,610.60 560.35,611.52 560.17,612.04 Z" fill="rgb(127,0,254)"/>
<path d="M 527.63 1022.97 C528.22,1022.38 538.28,1021.54 551.08,1021.01 C574.54,1020.05 591.00,1018.34 591.00,1016.87 C591.00,1016.39 592.46,1016.00 594.25,1015.99 C596.04,1015.99 598.76,1015.33 600.29,1014.53 C601.94,1013.67 606.65,1012.96 611.79,1012.79 C618.80,1012.56 620.76,1012.15 621.84,1010.70 C622.65,1009.61 624.24,1008.99 625.84,1009.13 C629.25,1009.42 637.00,1007.96 637.00,1007.03 C637.00,1006.09 644.05,1004.00 647.20,1004.00 C650.63,1004.00 663.00,1000.01 663.00,998.91 C663.00,998.41 664.46,997.98 666.25,997.96 C668.04,997.93 671.30,997.24 673.50,996.42 C675.70,995.59 680.42,993.93 684.00,992.72 C687.58,991.52 690.72,990.24 691.00,989.89 C691.28,989.54 693.08,988.93 695.00,988.53 C696.92,988.13 700.47,986.72 702.88,985.40 C705.28,984.08 707.67,983.00 708.18,983.00 C710.47,983.00 738.34,969.50 739.87,967.65 C740.63,966.74 742.03,966.00 743.00,966.00 C745.55,966.00 751.45,963.37 752.95,961.56 C753.66,960.70 754.98,959.99 755.87,959.98 C756.77,959.97 759.75,958.53 762.50,956.78 C765.25,955.03 770.76,951.91 774.74,949.86 C781.52,946.35 790.08,940.44 790.83,938.75 C791.02,938.34 791.93,938.00 792.87,938.00 C793.80,938.00 798.60,934.87 803.53,931.03 C808.47,927.20 814.97,922.38 818.00,920.31 C821.03,918.24 825.08,915.08 827.00,913.28 C828.92,911.48 831.29,909.75 832.25,909.43 C833.21,909.12 834.00,908.51 834.00,908.07 C834.00,907.63 835.91,905.97 838.25,904.39 C843.88,900.56 845.09,899.35 844.77,897.85 C844.62,897.16 845.22,896.57 846.10,896.55 C848.53,896.48 860.00,886.03 860.00,883.88 C860.00,882.84 860.70,882.00 861.57,882.00 C863.68,882.00 882.00,863.76 882.00,861.66 C882.00,860.70 882.79,860.00 883.88,860.00 C885.85,860.00 893.96,851.19 906.79,835.09 C908.28,833.22 911.09,829.84 913.03,827.59 C914.98,825.34 917.89,821.47 919.50,819.00 C921.12,816.53 923.80,812.88 925.47,810.90 C930.10,805.40 936.10,796.88 937.34,794.05 C937.96,792.65 938.71,791.28 939.01,791.00 C940.22,789.91 947.00,780.19 947.00,779.55 C947.00,779.17 948.12,777.39 949.50,775.59 C950.88,773.79 952.00,771.68 952.00,770.91 C952.00,770.13 953.80,766.80 956.00,763.50 C958.20,760.20 960.00,756.74 960.00,755.81 C960.00,754.88 960.45,753.84 961.01,753.50 C962.39,752.64 966.00,745.01 966.00,742.93 C966.00,742.01 966.75,740.63 967.68,739.87 C969.02,738.77 976.30,724.29 980.94,713.50 C981.41,712.40 983.43,707.95 985.42,703.60 C987.41,699.26 988.80,695.47 988.52,695.18 C988.23,694.90 988.59,693.72 989.33,692.58 C990.06,691.44 991.47,688.03 992.45,685.00 C993.43,681.97 994.87,677.99 995.65,676.15 C996.43,674.30 997.34,670.70 997.67,668.15 C998.00,665.59 998.66,663.01 999.12,662.41 C1000.77,660.30 1003.19,652.44 1003.69,647.55 C1004.18,642.79 1004.96,640.24 1006.89,637.00 C1007.38,636.17 1008.31,632.58 1008.95,629.00 C1009.60,625.42 1010.66,622.05 1011.31,621.50 C1012.02,620.90 1012.60,617.00 1012.75,611.86 C1012.91,606.61 1013.59,602.09 1014.50,600.36 C1015.32,598.79 1015.99,596.04 1015.99,594.25 C1016.00,592.46 1016.34,591.00 1016.75,591.00 C1017.16,591.00 1017.54,589.09 1017.58,586.75 C1017.63,584.41 1018.18,578.22 1018.80,573.00 C1019.43,567.78 1020.43,555.17 1021.03,545.00 C1021.63,534.83 1022.54,526.07 1023.06,525.55 C1023.06,525.55 1023.06,525.55 1023.06,525.55 C1023.65,525.55 1024.00,618.68 1024.00,774.30 L 1024.00 1024.00 L 775.30 1024.00 C604.10,1024.00 526.92,1023.68 527.63,1022.97 ZM 1024.00 1024.00 L 1023.83 781.75 C1023.73,650.03 1023.51,543.96 1023.33,543.96 C1023.33,543.96 1023.32,543.97 1023.32,544.00 C1020.55,581.96 1015.33,613.05 1005.86,647.90 C988.72,711.00 957.48,773.36 916.78,825.75 C866.32,890.67 803.41,940.84 727.48,976.68 C682.54,997.90 624.17,1014.81 581.50,1018.98 C574.90,1019.62 566.80,1020.61 563.50,1021.18 C560.20,1021.74 553.45,1022.55 548.50,1022.96 C548.39,1022.97 548.33,1022.98 548.33,1022.99 C548.33,1023.39 651.54,1023.78 781.75,1023.86 L 1024.00 1024.00 ZM 281.45 506.08 C281.76,505.58 285.13,503.98 288.93,502.53 C292.74,501.07 296.39,499.23 297.05,498.44 C297.71,497.65 299.29,497.00 300.56,497.00 C301.84,497.00 303.12,496.61 303.42,496.13 C303.71,495.65 305.77,494.97 307.98,494.62 C310.19,494.27 312.00,493.60 312.00,493.15 C312.00,492.69 313.91,491.76 316.25,491.09 C320.31,489.92 337.30,483.77 341.50,481.96 C342.60,481.48 347.77,479.69 353.00,477.97 C358.23,476.24 363.17,474.58 364.00,474.27 C371.20,471.55 391.57,464.62 395.83,463.45 C398.76,462.64 402.00,461.54 403.02,460.99 C404.03,460.45 406.16,460.00 407.73,460.00 C409.31,460.00 411.03,459.58 411.55,459.06 C412.07,458.55 416.09,457.17 420.48,456.00 C424.86,454.83 428.93,453.47 429.51,452.99 C430.09,452.51 433.29,451.68 436.61,451.14 C439.93,450.61 446.11,449.01 450.34,447.58 C454.58,446.16 459.01,445.00 460.20,445.00 C461.39,445.00 463.74,444.58 465.43,444.07 C472.18,442.03 479.80,440.09 485.50,438.98 C492.08,437.69 497.49,436.56 504.75,434.95 C507.36,434.37 512.20,433.50 515.50,433.02 C518.80,432.54 525.55,431.39 530.50,430.47 C535.45,429.54 542.42,428.39 546.00,427.90 C549.58,427.42 555.88,426.57 560.00,426.01 C564.12,425.45 571.43,424.72 576.23,424.38 C581.22,424.02 585.40,423.23 585.98,422.52 C586.73,421.62 589.65,421.42 596.49,421.78 C601.70,422.05 606.54,421.87 607.23,421.39 C608.81,420.28 711.56,420.34 718.75,421.45 C721.64,421.89 724.00,422.66 724.00,423.15 C724.00,423.65 725.36,423.35 727.03,422.49 C729.75,421.08 730.27,421.07 732.25,422.46 C733.46,423.31 736.53,424.00 739.10,424.00 C742.02,424.00 744.22,424.56 745.00,425.50 C745.21,425.75 745.55,425.98 745.98,426.19 C727.80,423.92 704.03,421.96 682.50,421.12 C566.11,416.57 427.77,446.09 287.00,505.48 C275.73,510.24 265.60,514.41 264.50,514.74 C262.68,515.29 262.63,515.19 263.98,513.54 C268.85,507.61 307.91,478.24 329.50,464.29 C365.43,441.06 408.10,419.79 451.50,403.49 C476.26,394.18 523.00,381.24 545.00,377.60 C589.84,370.17 606.40,368.59 640.00,368.55 C670.07,368.52 679.24,369.44 705.32,375.12 C743.19,383.37 778.00,400.17 800.14,420.89 C808.07,428.31 817.54,440.13 816.43,441.24 C816.15,441.52 812.23,440.66 807.71,439.34 C803.20,438.02 794.33,435.82 788.00,434.45 C781.67,433.09 774.25,431.33 771.50,430.56 C770.04,430.15 768.26,429.73 766.18,429.31 C769.43,429.81 772.34,430.13 773.50,430.09 C775.15,430.04 781.90,431.40 788.50,433.10 C802.77,436.79 809.90,437.97 810.63,436.78 C811.47,435.43 808.94,432.23 799.66,422.87 C794.80,417.97 789.90,413.94 788.32,413.54 C786.79,413.16 783.39,410.83 780.75,408.36 C778.11,405.90 774.42,403.24 772.55,402.46 C770.67,401.67 768.86,400.59 768.53,400.04 C768.19,399.50 766.13,398.52 763.96,397.87 C761.78,397.22 760.00,396.38 760.00,396.00 C760.00,395.63 756.74,394.07 752.75,392.54 C742.47,388.60 742.00,388.41 737.00,386.28 C734.53,385.22 730.47,383.75 728.00,383.00 C725.53,382.25 722.99,381.26 722.36,380.79 C720.69,379.55 708.87,376.97 698.00,375.47 C685.12,373.70 682.82,373.30 677.81,371.93 C672.82,370.57 668.20,370.23 643.29,369.41 C631.62,369.02 622.63,369.21 618.29,369.93 C614.55,370.55 607.22,371.27 602.00,371.54 C581.11,372.59 576.16,372.96 568.00,374.09 C563.33,374.73 558.38,375.72 557.00,376.29 C555.62,376.85 552.03,377.67 549.00,378.11 C540.15,379.38 536.63,380.08 534.50,381.00 C533.40,381.48 530.92,382.14 529.00,382.47 C516.94,384.56 512.08,385.81 508.36,387.81 C507.30,388.37 503.98,389.02 500.97,389.25 C497.96,389.48 494.15,390.34 492.50,391.16 C490.85,391.97 487.48,393.21 485.00,393.89 C477.13,396.07 470.53,398.27 469.50,399.06 C468.95,399.48 466.70,400.16 464.50,400.57 C462.30,400.98 458.62,402.37 456.31,403.66 C454.00,404.95 451.21,406.00 450.10,406.00 C449.00,406.00 447.06,406.41 445.80,406.92 C415.40,419.11 405.37,423.61 391.88,431.17 C387.14,433.83 382.39,436.00 381.32,436.00 C380.26,436.00 376.93,437.47 373.94,439.28 C370.95,441.08 365.53,444.21 361.90,446.24 C358.27,448.27 354.73,450.62 354.03,451.46 C353.33,452.31 351.93,453.00 350.91,453.00 C349.90,453.00 347.69,454.35 346.00,456.00 C344.31,457.65 342.23,459.00 341.38,459.00 C340.53,459.00 337.95,460.29 335.66,461.87 C333.37,463.45 330.11,465.58 328.40,466.62 C319.16,472.24 307.84,480.26 307.35,481.53 C307.04,482.34 306.25,483.00 305.59,483.00 C304.93,483.00 300.81,485.74 296.44,489.10 C292.07,492.45 286.24,496.89 283.47,498.97 C280.44,501.24 278.38,503.58 278.28,504.87 C278.12,507.00 280.35,507.86 281.45,506.08 ZM 579.10 688.33 C603.51,685.09 628.37,679.69 652.50,672.36 C674.06,665.81 680.17,662.66 688.69,653.69 C696.11,645.88 699.59,640.85 712.82,618.82 L 721.04 605.13 L 734.45 598.17 C800.91,563.66 834.33,527.20 842.51,480.29 C846.65,456.57 842.18,433.33 829.83,414.29 C822.99,403.75 805.02,386.11 793.07,378.22 C765.55,360.04 728.86,346.25 689.00,339.11 C650.55,332.22 627.04,331.59 572.00,335.98 C559.82,336.95 526.30,342.92 507.37,347.48 C487.47,352.28 456.32,361.79 439.96,368.06 C434.06,370.32 428.02,372.47 424.83,373.47 C424.94,373.35 425.00,373.21 425.00,373.07 C425.00,371.95 433.50,367.95 441.00,365.54 C444.02,364.58 447.78,362.89 449.34,361.80 C450.98,360.64 453.04,360.04 454.23,360.35 C455.37,360.65 458.01,360.01 460.11,358.95 C462.20,357.88 464.73,357.00 465.71,357.00 C466.69,357.00 469.98,356.06 473.00,354.90 C476.02,353.75 482.33,351.92 487.00,350.83 C491.67,349.75 496.51,348.61 497.75,348.31 C498.99,348.01 500.00,347.37 500.00,346.88 C500.00,346.40 502.22,346.00 504.94,346.00 C507.66,346.00 510.16,345.55 510.50,345.00 C510.84,344.45 512.16,344.00 513.43,344.00 C514.71,344.00 517.72,343.27 520.12,342.38 C522.53,341.48 525.84,340.82 527.48,340.91 C529.12,341.00 532.49,340.60 534.98,340.03 C544.87,337.77 558.50,336.00 558.81,336.94 C559.02,337.55 560.04,337.55 561.63,336.95 C563.01,336.43 566.61,336.00 569.64,336.00 C573.29,336.00 575.67,335.48 576.70,334.44 C577.97,333.18 580.32,332.94 589.13,333.19 C595.77,333.38 600.13,333.11 600.33,332.50 C600.54,331.89 609.18,331.38 622.69,331.18 C639.93,330.93 645.01,331.14 646.11,332.18 C647.07,333.09 650.56,333.50 657.42,333.50 C664.14,333.50 667.46,333.88 667.73,334.68 C667.97,335.40 669.36,335.67 671.31,335.37 C673.06,335.10 679.90,335.85 686.50,337.04 C693.10,338.23 700.53,339.52 703.00,339.91 C705.47,340.30 708.40,341.09 709.50,341.67 C710.60,342.25 714.88,343.52 719.00,344.49 C723.12,345.46 726.93,346.65 727.45,347.13 C727.97,347.61 729.57,348.00 731.00,348.00 C732.43,348.00 734.03,348.40 734.55,348.89 C735.07,349.37 738.88,350.81 743.00,352.08 C747.12,353.34 751.85,355.12 753.50,356.03 C755.15,356.94 758.76,358.43 761.53,359.35 C764.29,360.26 768.21,362.13 770.22,363.51 C772.24,364.88 774.80,366.00 775.90,366.00 C777.00,366.00 778.26,366.62 778.70,367.39 C779.14,368.15 782.59,370.41 786.36,372.40 C790.13,374.39 794.53,377.03 796.13,378.26 C812.34,390.68 823.91,402.22 829.99,412.00 C831.86,415.02 834.46,418.80 835.75,420.39 C837.05,421.98 837.86,423.92 837.56,424.71 C837.04,426.06 838.51,429.90 839.96,431.00 C840.32,431.27 841.60,435.57 842.81,440.55 C846.20,454.55 845.92,472.16 842.05,488.12 C840.43,494.82 838.63,500.77 838.05,501.35 C837.47,501.93 837.00,503.39 837.00,504.60 C837.00,505.81 835.88,508.75 834.51,511.15 C833.14,513.54 832.02,516.22 832.01,517.10 C832.01,517.99 830.99,519.89 829.75,521.33 C825.05,526.80 823.00,529.87 823.00,531.44 C823.00,532.34 820.04,536.09 816.42,539.78 C812.80,543.48 809.43,547.51 808.94,548.75 C808.45,549.99 807.48,551.00 806.77,551.00 C806.07,551.00 802.80,553.75 799.50,557.10 C789.19,567.59 788.76,567.97 788.08,567.55 C787.72,567.33 785.60,568.35 783.38,569.82 C769.97,578.71 765.30,582.07 763.72,583.96 C762.75,585.13 761.53,585.83 761.03,585.52 C759.77,584.74 749.31,591.56 747.99,594.01 C747.41,595.11 745.92,596.00 744.68,596.00 C742.67,596.00 740.03,597.11 733.50,600.70 C732.40,601.30 729.56,602.60 727.18,603.58 C722.86,605.37 722.60,605.67 713.67,619.75 C712.19,622.09 711.22,624.00 711.52,624.00 C711.83,624.00 711.16,624.98 710.04,626.19 C708.92,627.39 707.99,628.85 707.97,629.44 C707.96,630.02 706.61,632.27 704.97,634.43 C703.34,636.59 702.00,638.76 702.00,639.25 C702.00,642.12 684.87,660.33 679.09,663.61 C673.37,666.85 657.92,672.52 652.26,673.47 C649.92,673.86 647.76,674.58 647.45,675.09 C647.14,675.59 646.01,676.00 644.94,676.00 C643.87,676.00 643.00,676.36 643.00,676.80 C643.00,677.99 636.82,680.00 633.17,680.00 C629.62,680.00 612.31,683.67 610.59,684.79 C609.99,685.18 608.15,685.57 606.50,685.66 C601.40,685.94 590.13,687.08 579.10,688.33 ZM 1010.59 395.83 C1010.32,395.25 1009.93,394.80 1009.50,394.64 C1008.62,394.30 1008.00,392.80 1008.00,390.99 C1008.00,389.30 1007.10,386.16 1006.00,384.00 C1004.90,381.84 1004.00,378.99 1004.00,377.65 C1004.00,374.93 999.31,358.13 998.11,356.53 C997.68,355.96 996.52,352.35 995.53,348.50 C994.53,344.65 993.19,340.83 992.54,340.00 C991.89,339.17 990.80,336.48 990.12,334.00 C987.52,324.56 981.96,311.06 977.72,303.91 C976.22,301.39 975.00,298.85 975.00,298.27 C975.00,296.73 968.04,282.79 966.27,280.79 C965.40,279.80 964.96,278.00 965.23,276.56 C965.57,274.80 965.21,273.88 964.05,273.52 C963.14,273.23 961.40,270.85 960.18,268.24 C956.91,261.24 954.80,257.54 953.84,257.17 C953.38,256.98 953.00,256.37 953.00,255.81 C953.00,255.25 951.65,252.79 950.00,250.34 C948.35,247.90 947.00,245.26 947.00,244.49 C947.00,243.71 946.10,242.59 945.00,242.00 C943.90,241.41 943.00,240.15 943.00,239.20 C943.00,238.26 941.93,236.32 940.62,234.91 C937.69,231.75 927.00,215.62 927.00,214.36 C927.00,213.85 926.06,212.78 924.92,211.97 C923.77,211.16 922.24,209.38 921.52,208.00 C920.36,205.80 912.40,195.14 908.81,190.99 C908.09,190.15 904.71,186.09 901.30,181.96 C897.90,177.83 893.73,173.44 892.05,172.20 C890.37,170.96 889.00,169.34 889.00,168.61 C889.00,167.87 885.74,164.11 881.75,160.24 C877.76,156.37 873.98,152.59 873.35,151.85 C869.41,147.23 861.96,140.91 861.09,141.44 C860.52,141.80 859.78,140.98 859.44,139.63 C859.10,138.28 857.62,136.12 856.14,134.84 C841.44,122.03 832.98,115.00 832.27,115.00 C831.80,115.00 829.04,112.81 826.15,110.14 C823.26,107.47 819.68,104.66 818.20,103.91 C816.71,103.15 814.60,101.72 813.50,100.72 C807.11,94.91 788.46,82.37 774.00,74.16 C771.53,72.75 769.36,71.28 769.20,70.89 C769.03,70.50 766.33,68.98 763.20,67.50 C760.06,66.02 756.38,64.19 755.00,63.42 C753.62,62.65 749.58,60.62 746.00,58.91 C742.42,57.20 738.78,55.16 737.90,54.37 C737.01,53.59 734.02,52.15 731.23,51.17 C728.45,50.19 725.56,48.88 724.80,48.25 C723.05,46.79 710.22,41.02 707.98,40.68 C707.05,40.54 705.09,39.64 703.63,38.68 C702.17,37.72 698.91,36.55 696.40,36.08 C693.88,35.61 691.32,34.72 690.71,34.11 C690.10,33.50 688.85,33.00 687.93,33.00 C687.02,33.00 685.13,32.10 683.73,31.00 C682.33,29.90 680.48,29.00 679.61,29.00 C677.95,29.00 668.47,26.24 658.50,22.84 C648.92,19.58 642.35,18.23 640.67,19.17 C639.61,19.76 638.72,19.45 637.82,18.17 C637.09,17.15 634.70,16.03 632.50,15.68 C630.30,15.34 624.45,14.14 619.50,13.03 C614.55,11.92 606.67,10.33 602.00,9.49 C597.33,8.65 592.83,7.66 592.00,7.30 C590.23,6.52 591.31,6.68 573.00,4.53 C565.03,3.59 551.88,2.68 543.80,2.49 C535.71,2.31 528.29,1.68 527.30,1.11 C526.04,0.38 600.71,0.05 774.75,0.03 L 1024.00 0.00 L 776.75 0.17 C644.29,0.26 539.78,0.64 539.78,1.01 C539.78,1.02 539.85,1.03 540.00,1.04 C545.78,1.43 558.60,2.71 568.50,3.89 C578.40,5.08 588.57,6.22 591.09,6.44 C593.62,6.66 604.04,8.46 614.26,10.44 C729.08,32.72 835.24,97.22 910.61,190.50 C946.11,234.43 972.61,281.34 993.66,337.50 C998.49,350.40 1008.06,382.69 1009.95,392.50 C1010.13,393.41 1010.35,394.56 1010.59,395.83 ZM 560.17 612.04 C560.35,611.52 566.12,610.60 573.00,610.01 C588.80,608.66 608.91,605.94 617.50,604.00 C620.25,603.38 625.65,602.41 629.50,601.85 C637.71,600.65 646.93,598.18 648.86,596.65 C649.61,596.06 651.41,595.44 652.86,595.28 C654.31,595.12 657.40,594.49 659.72,593.87 C662.03,593.26 664.62,593.02 665.47,593.35 C666.31,593.67 667.00,593.52 667.00,593.02 C667.00,591.95 671.73,589.69 677.50,588.00 C679.70,587.36 682.98,586.16 684.79,585.35 C686.60,584.54 688.91,583.71 689.92,583.51 C690.94,583.32 692.61,582.73 693.64,582.22 C694.66,581.70 698.20,580.02 701.50,578.49 C704.80,576.96 708.49,574.81 709.71,573.72 C710.92,572.63 712.95,571.62 714.21,571.49 C715.47,571.36 717.00,571.20 717.60,571.13 C718.21,571.06 719.92,569.88 721.41,568.50 C722.89,567.12 724.89,566.00 725.84,566.00 C728.32,566.00 747.63,553.94 752.67,549.25 C754.00,548.01 755.37,547.00 755.70,547.00 C758.15,547.00 778.00,529.10 778.00,526.90 C778.00,526.22 778.31,525.97 778.68,526.35 C779.54,527.21 785.00,522.05 785.00,520.37 C785.00,519.68 786.35,518.32 788.00,517.34 C789.65,516.37 791.25,514.79 791.55,513.83 C791.85,512.88 792.90,511.85 793.87,511.54 C794.85,511.23 796.69,509.07 797.97,506.74 C799.25,504.41 801.72,500.70 803.46,498.50 C809.73,490.55 810.90,488.45 809.93,486.94 C809.12,485.69 808.87,485.70 808.04,487.00 C807.51,487.83 806.72,488.54 806.29,488.58 C805.85,488.63 804.23,489.19 802.68,489.83 C801.14,490.48 799.21,491.00 798.41,491.00 C797.61,491.00 796.44,492.12 795.82,493.50 C795.07,495.15 793.87,496.00 792.30,496.00 C789.56,496.00 782.44,499.37 779.50,502.05 C778.40,503.06 775.26,504.38 772.53,504.99 C769.80,505.61 766.20,506.93 764.53,507.94 C762.86,508.95 760.40,510.11 759.06,510.51 C757.73,510.92 752.47,513.22 747.39,515.63 C742.32,518.03 737.56,520.01 736.83,520.01 C736.10,520.02 733.57,521.13 731.22,522.47 C728.86,523.82 725.26,525.22 723.22,525.59 C721.17,525.96 719.05,526.58 718.50,526.98 C717.95,527.37 715.03,528.46 712.00,529.41 C708.97,530.35 705.28,531.99 703.79,533.06 C702.30,534.13 699.54,535.00 697.66,535.00 C695.78,535.00 693.68,535.67 693.00,536.50 C692.32,537.33 690.57,538.00 689.13,538.00 C686.64,537.99 684.00,538.73 670.90,543.12 C667.82,544.16 663.90,545.00 662.21,545.00 C660.51,545.00 658.84,545.45 658.50,546.00 C658.16,546.55 656.59,547.00 655.00,547.00 C653.41,547.00 651.84,547.45 651.50,548.00 C651.16,548.55 649.54,549.00 647.89,549.00 C646.25,549.00 643.04,549.90 640.76,551.00 C638.49,552.10 635.11,553.00 633.27,553.00 C631.42,553.00 625.54,554.07 620.21,555.37 C614.87,556.68 607.35,558.27 603.50,558.92 C599.65,559.57 594.58,560.53 592.24,561.05 C589.89,561.57 586.49,562.00 584.69,562.00 C582.88,562.00 580.92,562.48 580.34,563.06 C579.75,563.65 577.07,564.30 574.39,564.51 C571.70,564.72 566.35,565.38 562.50,565.98 C558.65,566.58 550.33,567.50 544.00,568.01 C537.67,568.53 524.40,569.63 514.50,570.46 C502.24,571.49 490.56,572.26 478.38,572.80 C531.06,570.09 592.79,561.30 638.00,550.02 C698.41,534.94 738.67,520.15 790.92,493.82 C804.90,486.77 816.48,481.15 816.65,481.32 C817.16,481.83 805.38,499.62 798.76,508.32 C795.34,512.82 788.26,520.81 783.02,526.07 C736.83,572.50 664.97,602.60 579.24,611.43 C568.29,612.56 554.74,612.96 531.24,612.86 C513.23,612.79 497.60,612.57 496.50,612.38 C496.42,612.37 496.29,612.35 496.11,612.33 C517.85,613.07 559.83,613.00 560.17,612.04 ZM 0.66 489.92 C4.95,408.95 25.97,333.52 62.92,266.53 C87.69,221.63 113.46,187.46 150.46,150.46 C181.25,119.66 207.69,98.54 242.00,77.29 C274.42,57.22 308.88,40.68 342.47,29.08 C358.59,23.51 385.27,15.57 391.59,14.47 C393.13,14.20 398.52,13.19 404.99,11.95 C400.46,12.97 396.93,13.91 395.60,14.57 C394.00,15.36 391.83,16.00 390.78,16.00 C389.73,16.00 386.77,16.63 384.19,17.40 C381.61,18.17 376.58,19.57 373.00,20.52 C369.42,21.46 365.15,22.80 363.50,23.50 C361.85,24.20 356.00,26.23 350.50,28.01 C345.00,29.80 340.23,31.67 339.91,32.18 C339.58,32.69 336.33,33.73 332.68,34.50 C329.04,35.26 324.05,37.06 321.60,38.50 C319.15,39.93 315.87,41.33 314.32,41.61 C312.77,41.89 306.96,44.34 301.41,47.06 C295.85,49.78 290.72,52.00 290.00,52.00 C289.28,52.00 287.21,53.12 285.41,54.50 C283.61,55.88 281.64,57.00 281.03,57.00 C279.65,57.00 265.07,64.75 262.92,66.62 C262.05,67.38 260.87,68.00 260.29,68.00 C259.72,68.00 258.68,68.68 258.00,69.50 C257.32,70.32 256.16,71.00 255.43,71.00 C254.70,71.00 252.10,72.35 249.66,74.00 C247.21,75.65 244.92,77.00 244.56,77.00 C244.21,77.00 243.37,77.47 242.71,78.04 C241.43,79.13 233.71,84.22 228.56,87.37 C226.88,88.40 221.45,92.25 216.50,95.94 C211.55,99.62 206.04,103.65 204.25,104.88 C202.46,106.12 201.00,107.81 201.00,108.63 C201.00,109.45 200.55,109.84 200.00,109.50 C199.45,109.16 199.00,109.36 199.00,109.94 C199.00,110.52 198.40,111.00 197.66,111.00 C195.76,111.00 187.00,118.02 187.00,119.54 C187.00,120.23 185.75,121.24 184.23,121.77 C182.71,122.30 178.78,125.27 175.51,128.37 C172.23,131.47 169.19,134.00 168.76,134.00 C168.32,134.00 167.22,135.57 166.30,137.50 C165.38,139.43 164.01,141.00 163.26,141.00 C161.50,141.00 141.00,161.45 141.00,163.20 C141.00,163.92 139.62,165.12 137.92,165.87 C136.23,166.62 134.65,167.76 134.40,168.40 C134.15,169.04 131.25,172.45 127.95,175.97 C124.64,179.50 121.69,183.41 121.37,184.66 C121.06,185.91 119.99,187.19 119.00,187.50 C118.00,187.82 115.47,190.64 113.36,193.79 C111.26,196.93 107.84,201.28 105.77,203.45 C103.70,205.62 102.00,207.69 102.00,208.06 C102.00,208.61 98.95,212.85 95.22,217.50 C93.80,219.27 87.52,228.42 87.00,229.48 C85.85,231.83 78.44,242.53 77.75,242.83 C77.34,243.02 77.00,243.59 77.00,244.10 C77.00,244.62 75.77,246.94 74.27,249.27 C72.78,251.60 70.73,255.29 69.72,257.48 C68.71,259.67 67.29,262.15 66.56,262.98 C64.17,265.71 56.00,281.79 56.00,283.76 C56.00,284.82 55.10,286.50 54.00,287.50 C52.90,288.50 52.00,289.69 52.00,290.15 C52.00,290.61 49.80,295.60 47.11,301.24 C44.43,306.88 41.91,312.62 41.53,314.00 C41.15,315.38 39.52,319.22 37.90,322.54 C36.29,325.87 34.78,330.53 34.54,332.90 C34.31,335.28 33.49,337.96 32.72,338.86 C31.31,340.53 25.62,355.46 24.67,360.00 C24.38,361.38 23.23,365.10 22.12,368.27 C21.00,371.44 19.12,378.19 17.92,383.27 C16.73,388.35 15.18,393.85 14.47,395.50 C12.27,400.63 8.12,423.99 7.46,435.00 C7.11,440.77 6.44,446.85 5.98,448.50 C4.48,453.82 2.96,469.14 2.51,483.42 C2.26,491.07 1.60,497.80 1.03,498.37 C0.90,498.50 0.77,495.73 0.66,489.92 ZM 6.92 592.33 C7.32,594.75 7.68,596.40 7.96,596.93 C8.48,597.90 9.37,601.35 9.95,604.60 C10.52,607.84 11.90,614.55 13.02,619.50 C14.14,624.45 15.34,630.30 15.69,632.50 C16.04,634.70 16.87,636.95 17.54,637.50 C18.22,638.05 19.02,641.15 19.32,644.39 C19.63,647.63 20.36,650.76 20.94,651.34 C21.52,651.92 22.00,653.55 22.01,654.95 C22.01,656.35 22.68,658.79 23.51,660.36 C24.33,661.94 25.00,663.97 25.00,664.87 C25.00,665.77 26.12,669.60 27.49,673.37 C28.86,677.14 29.73,680.63 29.43,681.11 C29.13,681.60 29.36,682.00 29.94,682.00 C30.52,682.00 31.00,682.70 31.00,683.56 C31.00,684.42 31.45,684.84 32.00,684.50 C32.57,684.15 33.00,685.01 33.00,686.49 C33.00,687.93 33.61,690.31 34.36,691.80 C35.10,693.28 36.00,696.00 36.35,697.83 C36.70,699.67 37.89,702.44 38.99,703.99 C40.10,705.54 41.03,707.64 41.07,708.65 C41.10,709.67 42.66,713.42 44.52,717.00 C49.28,726.10 49.65,726.91 51.57,732.26 C52.51,734.87 54.12,737.98 55.14,739.16 C56.17,740.35 57.46,742.98 58.01,745.02 C58.56,747.06 60.35,750.43 62.00,752.50 C63.65,754.58 65.00,756.78 65.00,757.39 C65.01,758.85 69.62,767.91 71.39,769.92 C72.15,770.79 73.95,773.85 75.38,776.71 C76.82,779.58 78.90,782.41 80.00,783.00 C81.10,783.59 82.00,784.79 82.00,785.67 C82.00,787.16 87.45,796.87 88.91,798.00 C89.56,798.50 95.13,806.07 102.28,816.16 C107.73,823.86 110.22,827.05 112.60,829.42 C113.75,830.56 114.88,832.01 115.10,832.64 C115.32,833.27 117.81,836.42 120.64,839.64 C123.47,842.86 128.21,848.41 131.18,851.96 C134.15,855.52 137.68,858.70 139.04,859.03 C140.43,859.37 141.40,860.26 141.26,861.08 C141.13,861.87 143.75,865.22 147.08,868.51 C150.41,871.80 156.32,877.76 160.20,881.75 C164.09,885.74 167.87,889.00 168.61,889.00 C169.34,889.00 170.97,890.40 172.22,892.10 C174.36,895.02 186.86,906.06 193.04,910.50 C197.62,913.79 208.31,921.82 211.12,924.08 C212.57,925.24 214.64,926.71 215.72,927.35 C222.08,931.07 230.82,936.90 233.92,939.50 C239.59,944.25 243.80,947.00 245.40,947.00 C246.22,947.00 247.17,947.46 247.51,948.02 C247.86,948.58 250.25,950.17 252.82,951.55 C255.39,952.92 258.85,954.94 260.50,956.03 C262.15,957.12 265.51,958.97 267.96,960.15 C270.42,961.32 273.04,962.89 273.78,963.64 C274.53,964.39 276.09,965.00 277.24,965.00 C278.40,965.00 280.05,965.64 280.92,966.42 C283.37,968.63 293.48,973.73 296.92,974.48 C298.61,974.85 300.00,975.50 300.00,975.91 C300.00,976.68 308.62,980.76 316.25,983.60 C318.59,984.47 322.14,986.04 324.14,987.09 C326.14,988.14 328.93,989.00 330.35,989.00 C331.77,989.00 334.86,990.07 337.21,991.38 C339.57,992.70 344.42,994.55 348.00,995.49 C351.58,996.44 355.85,997.81 357.50,998.54 C361.95,1000.49 375.09,1004.00 377.98,1004.00 C379.37,1004.01 381.97,1004.91 383.77,1006.00 C385.60,1007.11 388.81,1008.00 391.02,1008.00 C393.21,1008.00 395.00,1008.45 395.00,1009.00 C395.00,1009.55 396.01,1009.99 397.25,1009.99 C398.49,1009.98 402.65,1010.64 406.50,1011.45 C420.34,1014.35 428.58,1015.91 433.25,1016.51 C435.86,1016.85 438.00,1017.49 438.00,1017.94 C438.00,1018.20 438.39,1018.43 438.99,1018.58 C438.51,1018.54 438.06,1018.51 437.64,1018.47 C418.10,1016.99 369.46,1004.94 340.16,994.32 C281.42,973.03 231.43,944.21 182.00,903.14 C166.53,890.29 132.89,856.52 119.59,840.50 C61.06,770.00 22.01,685.78 8.07,600.00 C7.71,597.78 7.32,595.18 6.92,592.33 ZM 403.79 381.88 C403.06,382.23 402.29,382.61 401.50,383.00 C396.00,385.70 381.75,392.60 369.83,398.34 C357.92,404.08 340.82,412.76 331.85,417.64 C322.87,422.51 315.28,426.62 314.97,426.76 C314.66,426.91 312.15,424.85 309.38,422.18 C305.91,418.84 302.96,416.98 299.92,416.22 C293.77,414.69 246.99,410.83 242.00,411.44 C240.62,411.61 233.88,412.06 227.00,412.45 C206.13,413.63 187.84,415.88 185.22,417.59 C181.65,419.93 179.69,425.46 180.51,430.93 C182.78,446.10 197.78,482.19 211.27,504.92 L 215.67 512.33 L 213.80 520.34 C212.93,524.10 212.47,528.62 212.38,533.21 C212.16,526.33 212.26,519.72 212.85,517.59 C213.54,515.10 213.25,513.46 211.53,509.96 C207.44,501.68 204.80,496.99 203.90,496.44 C203.40,496.13 203.00,495.08 203.00,494.10 C203.00,493.11 202.10,491.50 201.00,490.50 C199.90,489.50 199.00,487.89 199.00,486.92 C199.00,485.95 197.94,483.88 196.64,482.33 C195.35,480.77 193.99,477.88 193.63,475.90 C193.26,473.92 191.62,469.67 189.98,466.47 C188.34,463.26 187.00,459.62 187.00,458.38 C187.00,457.13 186.60,455.87 186.11,455.57 C185.63,455.27 184.92,453.40 184.55,451.41 C184.18,449.42 183.27,446.38 182.53,444.65 C180.49,439.84 179.15,434.08 178.64,427.90 C178.24,423.06 178.49,421.96 180.47,419.90 C186.11,414.00 183.96,414.52 217.03,411.04 C221.72,410.54 228.47,410.47 232.03,410.88 C235.59,411.29 242.55,411.44 247.50,411.21 C264.99,410.39 288.00,411.74 297.74,414.14 C302.81,415.40 313.00,421.30 313.00,422.99 C313.00,424.85 317.50,424.02 318.82,421.92 C319.54,420.77 320.70,420.05 321.41,420.33 C322.11,420.60 324.45,419.74 326.59,418.43 C328.74,417.11 332.49,415.07 334.91,413.90 C337.34,412.72 341.39,410.29 343.91,408.50 C346.44,406.70 349.97,404.91 351.77,404.53 C353.57,404.15 356.28,402.86 357.78,401.67 C361.66,398.58 364.70,397.00 366.74,397.00 C367.71,396.99 370.52,395.65 373.00,394.00 C375.48,392.35 378.19,391.01 379.03,391.00 C379.87,391.00 383.20,389.63 386.43,387.95 C389.66,386.28 394.96,384.29 398.21,383.53 C400.30,383.04 402.39,382.41 403.79,381.88 ZM 500.00 691.92 C498.62,691.45 494.24,690.11 490.26,688.95 C486.28,687.79 482.76,686.42 482.45,685.91 C482.13,685.40 478.64,682.27 474.69,678.96 C463.38,669.48 458.83,665.35 445.23,652.22 L 432.50 639.95 L 427.31 640.14 C424.45,640.25 421.52,639.86 420.81,639.28 C420.09,638.69 417.48,637.96 415.00,637.64 C412.52,637.33 407.31,636.68 403.42,636.20 C399.52,635.72 395.82,635.01 395.19,634.62 C393.49,633.57 377.97,631.10 366.00,629.97 C360.23,629.43 354.28,628.71 352.80,628.38 C350.49,627.87 350.00,628.17 349.44,630.38 C349.08,631.81 347.33,634.22 345.54,635.74 C338.44,641.76 337.46,642.50 336.50,642.56 C335.95,642.60 328.98,645.80 321.00,649.68 C313.02,653.57 305.00,657.02 303.16,657.36 C301.32,657.71 297.61,659.09 294.92,660.45 C292.23,661.80 288.33,663.21 286.26,663.58 C284.19,663.96 281.74,664.65 280.82,665.13 C277.73,666.72 247.92,674.00 244.50,674.00 C242.65,674.00 239.92,674.46 238.44,675.02 C236.57,675.73 234.66,675.70 232.13,674.92 C225.34,672.81 223.60,671.55 222.56,667.98 C221.11,662.99 221.18,623.13 222.64,622.21 C223.17,621.88 223.80,619.01 224.17,615.46 C223.55,624.84 223.13,635.77 223.08,646.04 C223.01,661.29 223.17,662.92 225.25,667.04 C227.05,670.61 228.34,671.79 231.71,672.95 C235.63,674.31 236.97,674.20 251.91,671.23 C269.82,667.68 287.00,662.39 306.91,654.30 C332.27,644.01 344.73,636.73 347.71,630.47 C349.64,626.43 351.02,626.25 363.00,628.53 C372.29,630.29 390.66,633.12 415.50,636.60 L 434.50 639.27 L 446.50 650.98 C475.84,679.61 486.03,686.94 501.50,690.58 C508.71,692.28 547.10,691.72 567.57,689.70 C559.32,690.72 552.80,691.64 551.60,692.04 C548.04,693.22 503.46,693.12 500.00,691.92 ZM 292.97 576.85 C293.21,576.94 293.45,577.04 293.68,577.13 C295.23,577.75 297.40,578.37 298.50,578.51 C302.68,579.02 311.00,581.51 311.00,582.24 C311.00,582.66 312.50,583.00 314.33,583.00 C316.17,583.00 317.97,583.30 318.33,583.66 C320.08,585.41 330.02,588.16 334.25,588.07 C336.86,588.01 339.00,588.39 339.00,588.91 C339.00,589.95 348.59,593.00 351.86,593.00 C353.00,593.00 354.49,593.61 355.19,594.36 C356.13,595.37 357.31,595.48 359.80,594.79 C361.86,594.22 363.59,594.23 364.32,594.81 C364.97,595.33 366.85,596.00 368.50,596.31 C370.15,596.62 373.52,597.39 376.00,598.01 C378.48,598.63 383.20,599.56 386.50,600.07 C389.80,600.57 394.98,601.47 398.00,602.05 C408.36,604.05 427.73,606.51 442.94,607.77 C449.42,608.30 453.53,609.08 453.77,609.81 C453.83,609.98 454.02,610.13 454.37,610.26 C427.17,608.52 402.30,605.02 369.00,598.42 C344.12,593.48 302.85,581.93 294.45,577.55 C293.97,577.30 293.46,577.06 292.97,576.85 ZM 423.56 8.40 C429.27,7.32 434.09,6.41 436.00,6.06 C444.90,4.42 467.77,1.97 482.15,1.10 C482.40,1.08 482.52,1.07 482.52,1.05 C482.52,0.62 380.62,0.23 247.75,0.15 L 0.00 0.00 L 0.18 247.75 C0.27,366.39 0.45,464.38 0.60,485.74 C0.19,457.49 0.00,381.15 0.00,249.70 L 0.00 0.00 L 249.20 0.00 C435.08,0.00 498.11,0.29 497.27,1.13 C496.57,1.83 490.80,2.41 482.32,2.64 C474.72,2.85 463.55,3.76 457.50,4.65 C451.45,5.55 442.90,6.40 438.50,6.55 C435.38,6.65 429.75,7.39 423.56,8.40 ZM 378.57 573.38 C343.73,572.84 328.36,572.06 309.50,570.14 C293.20,568.47 280.17,567.77 279.00,568.50 C277.37,569.50 279.76,571.99 282.37,572.02 C283.54,572.03 285.62,572.92 287.00,574.00 C288.38,575.08 289.81,575.97 290.18,575.98 C290.26,575.98 290.37,576.00 290.52,576.04 C290.40,576.02 290.30,576.01 290.22,576.01 C288.34,576.00 265.68,566.98 264.50,565.77 C264.48,565.75 264.46,565.73 264.44,565.71 C264.28,565.55 264.14,565.41 264.17,565.31 C264.28,564.76 268.83,565.17 297.49,567.74 L 299.50 567.92 C311.60,569.00 329.60,570.38 339.50,570.97 C349.40,571.57 363.87,572.49 371.65,573.03 C373.57,573.16 375.91,573.28 378.57,573.38 ZM 0.63 526.30 L 0.63 526.30 C1.69,527.35 2.11,531.84 2.50,546.00 C2.73,554.28 3.93,568.23 5.21,579.47 C3.39,564.98 1.64,548.57 1.02,539.50 C1.01,539.36 1.00,539.30 0.99,539.30 C0.62,539.30 0.26,644.12 0.17,776.75 L 0.00 1024.00 L 0.00 774.83 C0.00,638.00 0.28,526.30 0.63,526.30 ZM 217.61 558.65 C218.38,559.85 219.36,561.47 220.23,563.00 C221.64,565.47 224.59,569.53 226.78,572.02 L 230.76 576.53 L 229.45 582.90 C228.72,586.40 227.67,590.44 227.11,591.88 C226.41,593.69 225.70,598.21 225.09,604.33 C225.73,597.31 226.37,593.18 226.98,592.00 C227.41,591.17 227.54,589.05 227.27,587.28 C227.00,585.51 227.30,582.59 227.94,580.78 C229.03,577.71 228.90,577.33 226.05,574.93 C224.37,573.51 223.00,572.03 223.00,571.63 C223.00,571.24 221.87,569.69 220.49,568.21 C218.73,566.32 218.04,564.54 218.19,562.30 C218.27,561.13 218.03,559.74 217.61,558.65 ZM 1021.97 495.25 C1021.86,483.96 1020.71,465.56 1019.83,461.04 C1019.16,457.57 1019.12,455.46 1019.73,455.26 C1020.32,455.06 1020.39,453.09 1019.91,450.22 C1019.47,447.62 1018.60,441.45 1017.97,436.50 C1017.29,431.20 1016.41,425.74 1015.24,419.70 C1015.34,420.17 1015.43,420.60 1015.51,421.00 C1016.24,424.58 1017.36,431.55 1017.99,436.50 C1018.63,441.45 1019.79,449.33 1020.57,454.00 C1021.36,458.67 1022.29,467.34 1022.65,473.25 C1022.91,477.46 1023.21,481.12 1023.43,482.88 C1023.31,492.95 1023.16,498.00 1023.00,498.00 C1022.45,498.00 1021.99,496.76 1021.97,495.25 ZM 1014.33 415.12 C1013.75,412.32 1013.11,409.39 1012.41,406.29 C1011.69,403.14 1011.10,399.59 1011.01,398.01 C1011.56,400.85 1012.16,403.98 1012.64,406.50 C1013.12,409.00 1013.74,412.18 1014.33,415.12 ZM 414.66 376.82 C412.22,377.86 409.24,379.24 405.37,381.11 C406.33,380.31 410.54,378.44 414.66,376.82 ZM 441.07 1018.77 C442.99,1018.86 447.71,1019.33 452.26,1019.89 C457.34,1020.52 467.12,1021.65 474.00,1022.39 C480.98,1023.15 470.60,1023.50 405.97,1023.68 C470.41,1023.50 480.95,1023.15 474.00,1022.40 C467.12,1021.66 457.67,1020.59 453.00,1020.02 C449.52,1019.60 444.81,1019.11 441.07,1018.77 ZM 213.80 549.91 C213.87,550.23 213.94,550.53 214.01,550.84 C213.94,550.56 213.87,550.25 213.80,549.91 Z" fill="rgb(121,13,233)"/>
<path d="M 283.04 566.45 C267.19,565.04 264.26,564.87 264.17,565.31 C264.14,565.41 264.28,565.55 264.44,565.71 C264.46,565.73 264.48,565.75 264.50,565.77 C265.24,566.53 274.54,570.40 281.77,573.16 C274.91,570.63 265.86,567.09 262.50,565.53 C258.72,563.77 260.73,563.64 270.35,565.03 C272.86,565.39 277.37,565.89 283.04,566.45 ZM 121.00 182.09 C137.66,162.57 156.29,143.65 175.56,126.66 C167.35,133.98 159.08,141.84 150.46,150.46 C139.79,161.13 130.05,171.57 121.00,182.09 ZM 0.66 489.92 C0.64,488.67 0.62,487.27 0.60,485.74 C0.59,484.98 0.59,484.12 0.58,483.17 C0.89,481.27 1.45,476.02 1.97,470.00 C3.05,457.47 4.74,444.22 6.90,430.91 C3.81,450.21 1.72,469.90 0.66,489.92 ZM 2.62 557.06 C1.96,551.45 1.38,546.82 1.10,545.00 C1.09,544.95 1.08,544.93 1.07,544.93 C0.86,544.93 0.66,566.07 0.50,601.72 C0.64,562.84 0.82,539.30 0.99,539.30 C1.00,539.30 1.01,539.36 1.02,539.50 C1.32,543.95 1.90,550.17 2.62,557.06 ZM 38.77 706.99 C58.49,754.50 85.78,799.78 119.57,840.48 C85.65,799.62 58.24,754.29 38.77,706.99 ZM 562.16 0.71 C550.74,0.80 544.45,0.89 544.45,0.99 C544.45,0.99 544.47,1.00 544.50,1.00 C546.84,1.34 553.06,2.10 560.27,2.96 C552.34,2.10 544.26,1.33 540.00,1.04 C539.85,1.03 539.78,1.02 539.78,1.01 C539.78,0.91 547.78,0.80 562.16,0.71 ZM 11.74 404.88 C15.20,388.31 19.29,372.39 23.74,358.50 C24.78,355.24 25.85,352.01 26.94,348.79 C20.86,367.04 15.79,385.75 11.74,404.88 ZM 413.75 0.46 C456.55,0.63 482.52,0.84 482.52,1.05 C482.52,1.07 482.40,1.08 482.15,1.10 C478.03,1.35 473.22,1.73 468.24,2.18 C472.49,1.71 476.12,1.29 478.00,1.06 C478.06,1.05 478.09,1.05 478.09,1.04 C478.09,0.83 453.70,0.63 413.75,0.46 ZM 342.47 29.08 C308.88,40.68 274.42,57.22 242.00,77.29 C274.02,57.35 308.19,40.92 342.47,29.08 ZM 61.03 270.00 C67.15,258.56 73.69,247.41 80.64,236.54 C74.59,246.06 68.73,256.00 62.92,266.53 ZM 405.43 11.86 C405.28,11.89 405.14,11.92 404.99,11.95 C398.52,13.19 393.13,14.20 391.59,14.47 C389.21,14.88 383.94,16.27 377.43,18.13 C383.49,16.38 388.37,15.07 390.50,14.67 C391.77,14.43 397.91,13.27 405.43,11.86 ZM 591.38 6.47 C591.45,6.47 591.51,6.48 591.57,6.49 C593.81,6.67 603.96,8.44 614.15,10.42 C604.32,8.51 594.32,6.78 591.38,6.47 ZM 12.37 622.76 C13.72,629.06 15.20,635.33 16.82,641.59 C15.19,635.34 13.71,629.10 12.37,622.76 ZM 438.56 5.62 C437.62,5.77 436.76,5.92 436.00,6.06 C435.75,6.10 435.46,6.16 435.12,6.22 C435.50,6.14 435.82,6.08 436.06,6.03 C436.60,5.93 437.46,5.78 438.56,5.62 ZM 587.12 6.03 C588.58,6.19 589.80,6.32 590.67,6.40 C589.88,6.33 588.66,6.20 587.12,6.03 Z" fill="rgb(181,120,234)"/>
<path d="M 0.12 781.75 C0.19,645.46 0.62,541.91 1.10,545.00 C1.56,548.03 2.86,558.83 3.99,569.00 C8.93,613.57 16.03,644.79 30.44,685.29 C50.06,740.41 80.51,793.42 119.59,840.50 C132.89,856.52 166.53,890.29 182.00,903.14 C231.43,944.21 281.42,973.03 340.16,994.32 C369.46,1004.94 418.10,1016.99 437.64,1018.47 C441.41,1018.76 448.33,1019.46 453.00,1020.02 C457.67,1020.59 467.12,1021.66 474.00,1022.40 C484.80,1023.57 453.38,1023.77 243.25,1023.87 L 0.00 1024.00 L 0.12 781.75 ZM 548.50 1022.96 C553.45,1022.55 560.20,1021.74 563.50,1021.18 C566.80,1020.61 574.90,1019.62 581.50,1018.98 C624.17,1014.81 682.54,997.90 727.48,976.68 C803.41,940.84 866.32,890.67 916.78,825.75 C957.48,773.36 988.72,711.00 1005.86,647.90 C1015.33,613.05 1020.55,581.96 1023.32,544.00 C1023.50,541.53 1023.73,648.51 1023.83,781.75 L 1024.00 1024.00 L 781.75 1023.86 C648.51,1023.78 543.55,1023.38 548.50,1022.96 ZM 501.50 690.58 C486.03,686.94 475.84,679.61 446.50,650.98 L 434.50 639.27 L 415.50 636.60 C390.66,633.12 372.29,630.29 363.00,628.53 C351.02,626.25 349.64,626.43 347.71,630.47 C344.73,636.73 332.27,644.01 306.91,654.30 C287.00,662.39 269.82,667.68 251.91,671.23 C236.97,674.20 235.63,674.31 231.71,672.95 C228.34,671.79 227.05,670.61 225.25,667.04 C223.17,662.92 223.01,661.29 223.08,646.04 C223.19,623.10 225.14,596.92 227.11,591.88 C227.67,590.44 228.72,586.40 229.45,582.90 L 230.76 576.53 L 226.78 572.02 C224.59,569.53 221.64,565.47 220.23,563.00 C218.82,560.53 217.14,557.83 216.50,557.00 C212.47,551.77 211.03,532.25 213.80,520.34 L 215.67 512.33 L 211.27 504.92 C197.78,482.19 182.78,446.10 180.51,430.93 C179.69,425.46 181.65,419.93 185.22,417.59 C187.84,415.88 206.13,413.63 227.00,412.45 C233.88,412.06 240.62,411.61 242.00,411.44 C246.99,410.83 293.77,414.69 299.92,416.22 C302.96,416.98 305.91,418.84 309.38,422.18 C312.15,424.85 314.66,426.91 314.97,426.76 C315.28,426.62 322.87,422.51 331.85,417.64 C340.82,412.76 357.92,404.08 369.83,398.34 C381.75,392.60 396.00,385.70 401.50,383.00 C413.89,376.92 418.52,374.97 423.00,373.99 C424.92,373.56 432.56,370.90 439.96,368.06 C456.32,361.79 487.47,352.28 507.37,347.48 C526.30,342.92 559.82,336.95 572.00,335.98 C627.04,331.59 650.55,332.22 689.00,339.11 C728.86,346.25 765.55,360.04 793.07,378.22 C805.02,386.11 822.99,403.75 829.83,414.29 C842.18,433.33 846.65,456.57 842.51,480.29 C834.33,527.20 800.91,563.66 734.45,598.17 L 721.04 605.13 L 712.82 618.82 C699.59,640.85 696.11,645.88 688.69,653.69 C680.17,662.66 674.06,665.81 652.50,672.36 C625.20,680.65 596.96,686.48 569.50,689.50 C549.62,691.68 508.94,692.33 501.50,690.58 ZM 579.24 611.43 C664.97,602.60 736.83,572.50 783.02,526.07 C788.26,520.81 795.34,512.82 798.76,508.32 C805.38,499.62 817.16,481.83 816.65,481.32 C816.48,481.15 804.90,486.77 790.92,493.82 C738.67,520.15 698.41,534.94 638.00,550.02 C591.91,561.52 528.65,570.43 475.31,572.95 C447.45,574.27 390.30,574.31 371.65,573.03 C363.87,572.49 349.40,571.57 339.50,570.97 C317.84,569.67 279.84,566.40 270.35,565.03 C260.73,563.64 258.72,563.77 262.50,565.53 C268.02,568.10 288.92,576.00 290.22,576.01 C290.92,576.01 292.83,576.70 294.45,577.55 C302.85,581.93 344.12,593.48 369.00,598.42 C408.55,606.26 436.20,609.72 470.00,611.06 C483.48,611.60 495.40,612.19 496.50,612.38 C497.60,612.57 513.23,612.79 531.24,612.86 C554.74,612.96 568.29,612.56 579.24,611.43 ZM 287.00 505.48 C427.77,446.09 566.11,416.57 682.50,421.12 C717.41,422.48 758.25,426.81 771.50,430.56 C774.25,431.33 781.67,433.09 788.00,434.45 C794.33,435.82 803.20,438.02 807.71,439.34 C812.23,440.66 816.15,441.52 816.43,441.24 C817.54,440.13 808.07,428.31 800.14,420.89 C778.00,400.17 743.19,383.37 705.32,375.12 C679.24,369.44 670.07,368.52 640.00,368.55 C606.40,368.59 589.84,370.17 545.00,377.60 C523.00,381.24 476.26,394.18 451.50,403.49 C408.10,419.79 365.43,441.06 329.50,464.29 C307.91,478.24 268.85,507.61 263.98,513.54 C262.63,515.19 262.68,515.29 264.50,514.74 C265.60,514.41 275.73,510.24 287.00,505.48 ZM 0.00 242.17 L 0.00 0.00 L 242.25 0.13 C375.49,0.20 481.58,0.62 478.00,1.06 C474.42,1.50 464.55,2.60 456.06,3.50 C447.56,4.39 438.56,5.53 436.06,6.03 C433.55,6.54 422.95,8.56 412.50,10.52 C402.05,12.49 392.15,14.36 390.50,14.67 C384.53,15.80 357.06,24.04 342.47,29.08 C294.20,45.75 246.15,71.53 204.00,103.38 C167.66,130.83 131.21,167.26 103.34,204.00 C68.53,249.88 42.04,301.30 23.74,358.50 C13.49,390.53 5.12,433.39 1.97,470.00 C1.33,477.42 0.63,483.69 0.41,483.92 C0.18,484.15 0.00,375.36 0.00,242.17 ZM 1022.65 473.25 C1022.29,467.34 1021.36,458.67 1020.57,454.00 C1019.79,449.33 1018.63,441.45 1017.99,436.50 C1017.36,431.55 1016.24,424.58 1015.51,421.00 C1014.78,417.42 1013.49,410.90 1012.64,406.50 C1011.80,402.10 1010.59,395.80 1009.95,392.50 C1008.06,382.69 998.49,350.40 993.66,337.50 C972.61,281.34 946.11,234.43 910.61,190.50 C835.23,97.22 729.08,32.72 614.23,10.44 C604.01,8.45 593.81,6.67 591.57,6.49 C586.22,6.04 550.90,1.92 544.50,1.00 C541.75,0.60 648.51,0.22 781.75,0.14 L 1024.00 0.00 L 1024.00 242.00 C1024.00,375.10 1023.84,484.00 1023.65,484.00 C1023.46,484.00 1023.01,479.16 1022.65,473.25 Z" fill="rgb(254,254,254)"/>
</g>
</svg>